<?xml version="1.0" encoding="utf-8"?>
<!-- Generator: Adobe Illustrator 27.0.0, SVG Export Plug-In . SVG Version: 6.00 Build 0)  -->
<svg version="1.1" id="Layer_1" xmlns="http://www.w3.org/2000/svg" xmlns:xlink="http://www.w3.org/1999/xlink" x="0px" y="0px"
	 viewBox="0 0 1000 358.6" style="enable-background:new 0 0 1000 358.6;" xml:space="preserve">
<style type="text/css">
	.st0{fill:#FFFFFF;}
</style>
<path class="st0" d="M112.1,246.8c0-20.6,16.7-37.4,37.4-37.4v-37.4H0v37.4c20.6,0,37.4,16.7,37.4,37.4S20.6,284.2,0,284.2v37.4
	h149.5v-37.4C128.8,284.2,112.1,267.5,112.1,246.8L112.1,246.8z"/>
<path class="st0" d="M162.1,10v149.5c41.3,0,74.7-33.5,74.7-74.7S203.4,10,162.1,10z"/>
<path class="st0" d="M236.8,84.6c0,41.3,33.5,74.7,74.7,74.7V10C270.3,10,236.8,43.5,236.8,84.6z"/>
<path class="st0" d="M98.1,84.6H52.4H28.1V37.9h24.4h45.8c12.8,0,23.3,10.5,23.3,23.3C121.4,74.2,111.1,84.6,98.1,84.6L98.1,84.6z
	 M102.8,10.2c-1.4-0.2-3.1-0.2-4.7-0.2h-70H0v27.9v46.7v28.1v46.7h28.1v-46.7h70c1.7,0,3.1,0,4.7-0.2c26.2-2.3,46.7-24.4,46.7-51.2
	C149.5,34.6,129.1,12.5,102.8,10.2L102.8,10.2z"/>
<polygon class="st0" points="162.1,321.6 162.1,279.3 204.4,321.6 "/>
<polygon class="st0" points="247.4,321.6 162.1,236.3 162.1,193.4 290.5,321.6 "/>
<polygon class="st0" points="311.8,172.1 311.8,214 269.9,172.1 "/>
<polygon class="st0" points="311.8,299.9 184,172.1 226.9,172.1 311.8,257 "/>
<g>
	<path class="st0" d="M408.2,10h25.4l47.1,124.7h-22.3l-9.9-27.7h-54.7l-10.1,27.7h-22.3L408.2,10z M442.9,89.9l-22.1-60.7h-0.4
		l-22.1,60.7H442.9z"/>
	<path class="st0" d="M471.4,45.1H491l20.9,71.2h0.2l21.5-71.2h21.3l21.9,71.6h0.2l20.6-71.6H617l-28.3,89.4h-23.3l-20.9-69.8h-0.4
		l-20.2,69.8h-23.3L471.4,45.1z"/>
	<path class="st0" d="M618,110.6c0-14.9,12.4-26.4,38.8-29.3l20.6-2.3c4.5-0.6,7.8-3.1,7.8-7.4c0-7.8-8.7-14-22.1-14
		c-14.5,0-24.6,9.5-25.6,18.6l-17.6-5.8c1.9-15.1,19.2-28.7,43.6-28.7c24.4,0,40.5,13.6,40.5,33.2v41.9c0,3.1,1.9,5.4,4.1,5.4
		c2.1,0,4.7-1.9,6.4-4.5l7.8,11.4c-4.3,5.4-12.6,9.1-20.2,9.1c-9.7,0-16.1-6.6-16.7-14.7l-0.4-1.9h-0.2
		c-6.4,10.1-17.8,16.5-32.6,16.5C632.3,138,618,126.7,618,110.6z M684.7,97.8v-5.6l-24.8,2.9c-16.7,1.9-22.9,7.8-22.9,14.5
		c0,7.8,8.7,12.8,20.2,12.8C673.1,122.3,684.7,112,684.7,97.8z"/>
	<path class="st0" d="M802.6,70.5l-16.3,5.2c-1-11.2-7-17.8-15.7-17.8c-13,0-20.9,10.7-20.9,29.1v47.7h-19.2V45.1h15.7l2.5,13.8h0.2
		c5-10.7,14.5-17.3,25.6-17.3C790.2,41.8,800.7,52.5,802.6,70.5z"/>
	<path class="st0" d="M809.2,89.9c0-28.1,18.4-48.1,43.6-48.1c13.6,0,24.6,6,32.2,17.1h0.2V4.6h19v129.9h-16.3l-2.5-14h-0.2
		c-7.4,11.2-18.6,17.3-32.4,17.3C827.6,138,809.2,117.8,809.2,89.9z M885.8,89.9c0-17.3-12.2-31.2-28.9-31.2
		c-16.5,0-28.7,13.8-28.7,31.2c0,17.8,12.4,31.2,28.7,31.2C873.6,121.1,885.8,107.3,885.8,89.9z"/>
	<path class="st0" d="M915.8,106.9l18-2.9c1,11.2,11.8,18.8,26.4,18.8c12.4,0,22.1-5.4,22.1-13.2c0-5.8-6.2-9.5-20-12l-14.5-2.5
		c-19.2-3.7-27.5-11.4-27.3-25.4c0.2-16.7,14.9-28.1,35.5-28.1c20,0,35.3,10.3,38.2,25.4l-17.3,3.9c-1-8.5-9.7-14.5-21.3-14.5
		c-10.1,0-17.3,5.6-17.6,12c-0.2,5.4,4.7,8.5,16.1,10.7l14.7,2.7c22.1,4.1,31.2,12,31.2,26c0,17.6-16.9,29.9-40.3,29.9
		C936.4,137.8,917,126.9,915.8,106.9z"/>
</g>
<g>
	<path class="st0" d="M359.5,255.5c0-38.8,26.8-66.7,65-66.7c25.4,0,47.5,15.9,54.5,38l-19.4,5.4c-5.2-14.7-19.4-25-35.3-25
		c-25.6,0-43.6,19.8-43.6,48.3c0,28.1,19.4,48.5,46.3,48.5c23.5,0,43.2-17.1,43.4-39.4h-58v-16.5h79.3v69.8h-16.5l-2.1-21.3h-0.2
		c-10.5,16.1-28.1,25.6-49.1,25.6C386.1,322,359.5,294.5,359.5,255.5z"/>
	<path class="st0" d="M501.8,293.9c0-14.9,12.4-26.4,38.8-29.3l20.6-2.3c4.5-0.6,7.8-3.1,7.8-7.4c0-7.8-8.7-14-22.1-14
		c-14.5,0-24.6,9.5-25.6,18.6l-17.6-5.8c1.9-15.1,19.2-28.7,43.6-28.7c24.4,0,40.5,13.6,40.5,33.2v41.9c0,3.1,1.9,5.4,4.1,5.4
		c2.1,0,4.7-1.9,6.4-4.5l7.8,11.4c-4.3,5.4-12.6,9.1-20.2,9.1c-9.7,0-16.1-6.6-16.7-14.7l-0.4-1.9h-0.2
		c-6.4,10.1-17.8,16.5-32.6,16.5C516,321.2,501.8,310,501.8,293.9z M568.4,281.1v-5.8l-24.8,2.9c-16.7,1.9-22.9,7.8-22.9,14.5
		c0,7.8,8.7,12.8,20.2,12.8C556.9,305.5,568.4,295.4,568.4,281.1z"/>
	<path class="st0" d="M614.3,188h19.2v129.9h-19.2V188z"/>
	<path class="st0" d="M650,188h19.2v129.9H650V188z"/>
	<path class="st0" d="M682.4,272c0-27.5,19.4-47.3,46.7-47.3c26.8,0,44.8,19.4,44.8,46.7c0,2.5-0.2,5.2-0.6,7.4H702
		c2.1,16.1,14.7,26.6,31.4,26.6c12.8,0,23.5-6.2,28.1-14.7l14.2,7.2c-5.8,13.6-22.7,23.3-42.7,23.3
		C703.5,321.4,682.4,300.7,682.4,272z M753.9,264.8c-1.9-16.1-11.2-24.2-25-24.2c-14,0-24.2,9.7-26.8,24.2H753.9z"/>
	<path class="st0" d="M860.4,253.9l-16.3,5.2c-1-11.2-7-17.8-15.7-17.8c-13,0-20.9,10.7-20.9,29.1v47.7h-19.2v-89.4H804l2.5,13.8
		h0.2c5-10.7,14.5-17.3,25.6-17.3C848,225.2,858.6,235.9,860.4,253.9z"/>
	<path class="st0" d="M861.9,337.1l12.6-12.2c6.2,10.5,17.6,16.9,31.8,16.9c18.8,0,30.4-10.3,30.4-27v-6.2h-0.2
		c-6,9.7-17.3,15.3-28.7,15.3c-22.1,0-36.1-15.7-36.1-37.8v-57.6h19.2v56.2c0,13.4,7.8,22.9,21.1,22.9c13.2,0,24.6-10.3,24.6-24.6
		v-54.5h19.2l0.2,86.5c0,27-18.8,43.6-48.5,43.6C885.8,358.3,869.5,350.5,861.9,337.1z"/>
</g>
</svg>
